<svg
  xmlns="http://www.w3.org/2000/svg"
  width="64"
  height="64"
  viewBox="0 0 64 64"
  shape-rendering="crispEdges"
>
  <rect width="64" height="64" fill="#0b0d10" />
  <rect x="4" y="4" width="56" height="56" fill="#162028" />
  <rect x="8" y="8" width="48" height="48" fill="#101418" />

  <rect x="28" y="8" width="8" height="4" fill="#ffd95a" />
  <rect x="24" y="12" width="4" height="4" fill="#58d7ff" />
  <rect x="36" y="12" width="4" height="4" fill="#58d7ff" />

  <rect x="20" y="16" width="24" height="4" fill="#ff8b7f" />
  <rect x="16" y="20" width="32" height="8" fill="#ff4438" />
  <rect x="20" y="28" width="24" height="4" fill="#8c211b" />

  <rect x="16" y="32" width="32" height="8" fill="#ff4438" />
  <rect x="20" y="40" width="24" height="4" fill="#8c211b" />

  <rect x="12" y="44" width="40" height="8" fill="#ff4438" />
  <rect x="16" y="52" width="32" height="4" fill="#8c211b" />

  <rect x="24" y="20" width="4" height="4" fill="#eef3f6" />
  <rect x="32" y="20" width="4" height="4" fill="#eef3f6" />
  <rect x="40" y="20" width="4" height="4" fill="#eef3f6" />

  <rect x="20" y="32" width="4" height="4" fill="#eef3f6" />
  <rect x="28" y="32" width="4" height="4" fill="#eef3f6" />
  <rect x="36" y="32" width="4" height="4" fill="#eef3f6" />
  <rect x="44" y="32" width="4" height="4" fill="#eef3f6" />

  <rect x="28" y="44" width="8" height="4" fill="#ffd95a" />

  <rect x="8" y="56" width="48" height="4" fill="#e6edf2" />
  <rect x="56" y="8" width="4" height="52" fill="#e6edf2" />
</svg>
