<svg xmlns="http://www.w3.org/2000/svg" width="512" height="512" viewBox="0 0 64 64" shape-rendering="crispEdges"><rect x="0" y="0" width="64" height="64" fill="#f7f4ef"/><polygon points="4,4 52,4 60,12 60,56 56,60 8,60 4,56" fill="#ff4438"/><polygon points="4,4 12,4 12,60 8,60 4,56" fill="#d92f3d"/><polygon points="52,4 60,12 52,12" fill="#d92f3d"/><rect x="17" y="6" width="34" height="20" fill="#ffb5ad"/><rect x="37" y="9" width="8" height="12" fill="#a81d30"/><rect x="14" y="31" width="40" height="22" fill="#fffdf8"/><rect x="19" y="36" width="29" height="3" fill="#ff4438"/><rect x="19" y="42" width="29" height="3" fill="#ff4438"/><rect x="19" y="48" width="29" height="3" fill="#ff4438"/><rect x="14" y="53" width="40" height="6" fill="#a81d30"/><rect x="7" y="53" width="3" height="3" fill="#a81d30"/><rect x="55" y="53" width="3" height="3" fill="#a81d30"/></svg>